<?xml version="1.0" encoding="UTF-8" standalone="no"?>
<svg xmlns="http://www.w3.org/2000/svg" style="fill:#000" width="48" viewBox="0 24 24 24" height="48">
  <path style="fill:none" d="M 0,24 H 24 V 48 H 0 Z" />
  <path d="M 12,26 C 6.48,26 2,30.48 2,36 2,41.52 6.48,46 12,46 17.52,46 22,41.52 22,36 22,30.48 17.52,26 12,26 Z m 1,17 h -2 v -2 h 2 z m 2.07,-7.75 -0.9,0.92 C 13.45,36.9 13,37.5 13,39 h -2 v -0.5 c 0,-1.1 0.45,-2.1 1.17,-2.83 l 1.24,-1.26 C 13.78,34.05 14,33.55 14,33 c 0,-1.1 -0.9,-2 -2,-2 -1.1,0 -2,0.9 -2,2 H 8 c 0,-2.21 1.79,-4 4,-4 2.21,0 4,1.79 4,4 0,0.88 -0.36,1.68 -0.93,2.25 z" />
</svg>
